<svg xmlns="http://www.w3.org/2000/svg" viewBox="0 0 512 512" role="img" aria-label="xshow circuits">
  <rect width="512" height="512" rx="104" fill="#111827"/>
  <rect x="32" y="32" width="448" height="448" rx="82" fill="none" stroke="#334155" stroke-width="10"/>
  <path
    d="M234.8 99.7c6.4-30.2 49.9-30.2 56.3 0l23.8 112.1a58 58 0 0 0 45.2 45.2l112.1 23.8c30.2 6.4 30.2 49.9 0 56.3l-112.1 23.8a58 58 0 0 0-45.2 45.2l-23.8 112.1c-6.4 30.2-49.9 30.2-56.3 0L211 406.1a58 58 0 0 0-45.2-45.2L53.7 337.1c-30.2-6.4-30.2-49.9 0-56.3L165.8 257a58 58 0 0 0 45.2-45.2z"
    fill="none"
    stroke="#f8fafc"
    stroke-linejoin="round"
    stroke-width="30"
  />
  <path d="M392 74v82M433 115h-82" fill="none" stroke="#67e8f9" stroke-linecap="round" stroke-width="28"/>
  <circle cx="118" cy="404" r="42" fill="none" stroke="#f8fafc" stroke-width="28"/>
</svg>
